# xmcd
#
# Track frame offsets: 
#        150
#        21092
#        37795
#        53817
#        85952
#        103104
#        125800
#        159862
#        185412
#        210455
#        241672
#
# Disc length: 3703 seconds
#
# Revision: 1
# Processed by: cddbd v1.5.2PL0 Copyright (c) Steve Scherf et al.
# Submitted via: ExactAudioCopyFreeDBPlugin 1.0
#
DISCID=830e750b
DTITLE=Mojo Blues Band - A Chicago Blues Night (feat. Taildragger)
DYEAR=1998
DGENRE=Blues
TTITLE0=You Can't Lose What You Ain't Never Had - live
TTITLE1=If It Ain't Me - live
TTITLE2=Take Off Boogie - live
TTITLE3=Sunnyland Train - live
TTITLE4=Young Fashioned Ways - live
TTITLE5=Tend to Your Business - live
TTITLE6=Long Distance Call - live
TTITLE7=Just Sittin' Here - live
TTITLE8=Cold Outdoors - live
TTITLE9=Be Prepared - live
TTITLE10=Highway 57 - live
EXTD=
EXTT0=
EXTT1=
EXTT2=
EXTT3=
EXTT4=
EXTT5=
EXTT6=
EXTT7=
EXTT8=
EXTT9=
EXTT10=
PLAYORDER=
